<svg xmlns="http://www.w3.org/2000/svg" fill-rule="evenodd" clip-rule="evenodd" image-rendering="optimizeQuality" shape-rendering="geometricPrecision" text-rendering="geometricPrecision" viewBox="0 0 64000 64000"><path fill="#ad3131" d="M50857 35282l3570 -13209c554,-2262 1477,-3409 2740,-3085l-4281 15935c-36,132 -113,233 -231,302l-1064 619c-179,104 -391,91 -555,-35 -165,-126 -233,-327 -179,-527zm-37714 0l-3570 -13209c-554,-2262 -1477,-3409 -2740,-3085l4281 15935c36,132 113,233 231,302l1064 619c179,104 391,91 555,-35 165,-126 233,-327 179,-527zm18680 -27781c36,66 102,103 176,103 76,0 142,-37 178,-103 2880,-5069 7287,-8986 13318,-6954 4641,1563 7999,6143 7999,11550 0,7690 -7891,13929 -12970,18881l-7138 6574c-786,723 -1987,723 -2772,0l-7139 -6574c-5077,-4952 -12969,-11191 -12969,-18881 0,-5551 3541,-10232 8374,-11669 5894,-1754 10158,2173 12943,7073zm-1988 46174c467,-3994 -1306,-7264 -3952,-9387 -1728,-1387 -4083,-1920 -5925,-3098l-4377 -2998c-2274,-1579 -4792,1035 -3351,2818l2692 4037c330,495 716,855 1242,1134l5813 3075c590,275 138,1183 -479,827l-6039 -3039c-537,-270 -1179,-873 -1517,-1371l-2719 -4011c-875,-1284 -895,-2753 251,-3973 105,-112 150,-250 132,-402 -19,-152 -95,-276 -224,-359l-924 -602c-109,-71 -179,-168 -211,-293l-4814 -18516c-1138,-4007 -6281,-3150 -5312,1154l3184 20943c492,3237 1546,6065 3922,8318l7691 7295c684,648 1176,1506 958,2423l-627 2642c-141,590 197,1323 792,1441l11132 2215c1134,225 1577,-309 1787,-1188 629,-2638 756,-8071 875,-9085zm4330 0c-467,-3994 1306,-7264 3952,-9387 1728,-1387 4083,-1920 5925,-3098l4377 -2998c2274,-1579 4792,1035 3351,2818l-2692 4037c-330,495 -716,855 -1242,1134l-5813 3075c-590,275 -138,1183 479,827l6039 -3039c537,-270 1179,-873 1517,-1371l2719 -4011c875,-1284 895,-2753 -251,-3973 -105,-112 -150,-250 -132,-402 19,-152 95,-276 224,-359l924 -602c109,-71 179,-168 211,-293l4814 -18516c1138,-4007 6281,-3150 5312,1154l-3184 20943c-492,3237 -1546,6065 -3922,8318l-7691 7295c-684,648 -1176,1506 -958,2423l627 2642c141,590 -197,1323 -792,1441l-11132 2215c-1134,225 -1577,-309 -1787,-1188 -629,-2638 -756,-8071 -875,-9085z" class="color000000 svgShape"/></svg>