<svg xmlns="http://www.w3.org/2000/svg" xmlns:xlink="http://www.w3.org/1999/xlink" enable-background="new 0 0 180 180" viewBox="0 0 180 180"><path fill="#e6e6e6" d="M154.7,66.9c-4.6-12.5,0.5-32.6-9.8-41.2c-10-8.3-29-0.2-42.8-2.6c-13.8-2.4-28.7-16.6-41-12.2
		c-12.7,4.5-15,25.1-23.7,35.3C29,56,8.7,61.5,6.2,75.1c-2.5,13.6,14.6,25.8,19,37.9c4.6,12.5-0.5,32.6,9.8,41.2
		c10,8.3,29,0.2,42.8,2.6c13.8,2.4,28.7,16.6,41,12.2c12.7-4.5,15-25.1,23.7-35.3c8.4-9.9,28.7-15.4,31.2-29
		C176.2,91.2,159.2,79.1,154.7,66.9z" class="colore6e6e6 svgShape"/><path fill="#fff" d="M175,125.5l-1.4-3.4l-4.2,0.6l0.6-4.2l-3.4-1.4l-2.5,3.4l-2.5-3.4l-3.4,1.4l0.6,4.2l-4.2-0.6l-1.4,3.4
		l3.4,2.5l-3.4,2.5l1.4,3.4l4.2-0.6l-0.6,4.2l3.4,1.4l2.5-3.4l2.5,3.4l3.4-1.4l-0.6-4.2l4.2,0.6l1.4-3.4l-3.4-2.5L175,125.5z" class="colorffffff svgShape"/><path fill="#ad9c9c" d="M166.5,140c-0.3,0-0.6-0.1-0.8-0.4l-1.7-2.4l-1.7,2.4c-0.3,0.4-0.8,0.5-1.2,0.3l-3.4-1.4
		c-0.4-0.2-0.7-0.6-0.6-1.1l0.4-2.9l-2.9,0.4c-0.4,0.1-0.9-0.2-1.1-0.6l-1.4-3.4c-0.2-0.4,0-0.9,0.3-1.2l2.4-1.7l-2.4-1.7
		c-0.4-0.3-0.5-0.8-0.3-1.2l1.4-3.4c0.2-0.4,0.6-0.7,1.1-0.6l2.9,0.4l-0.4-2.9c-0.1-0.5,0.2-0.9,0.6-1.1l3.4-1.4
		c0.4-0.2,0.9,0,1.2,0.3l1.7,2.4l1.7-2.4c0.3-0.4,0.8-0.5,1.2-0.3l3.4,1.4c0.4,0.2,0.7,0.6,0.6,1.1l-0.4,2.9l2.9-0.4
		c0.4-0.1,0.9,0.2,1.1,0.6l1.4,3.4c0.2,0.4,0,0.9-0.3,1.2l-2.4,1.7l2.4,1.7c0.4,0.3,0.5,0.8,0.3,1.2l-1.4,3.4
		c-0.2,0.4-0.6,0.7-1.1,0.6l-2.9-0.4l0.4,2.9c0.1,0.5-0.2,0.9-0.6,1.1l-3.4,1.4C166.8,140,166.7,140,166.5,140z M164,134.6
		L164,134.6c0.3,0,0.6,0.2,0.8,0.4l2.1,2.8l2-0.8l-0.5-3.5c0-0.3,0.1-0.6,0.3-0.9c0.2-0.2,0.5-0.3,0.9-0.3l3.5,0.5l0.8-2l-2.8-2.1
		c-0.3-0.2-0.4-0.5-0.4-0.8c0-0.3,0.2-0.6,0.4-0.8l2.8-2.1l-0.8-2l-3.5,0.5c-0.3,0-0.6-0.1-0.9-0.3c-0.2-0.2-0.3-0.5-0.3-0.9
		l0.5-3.5l-2-0.8l-2.1,2.8c-0.2,0.3-0.5,0.4-0.8,0.4l0,0c-0.3,0-0.6-0.2-0.8-0.4l-2.1-2.8l-2,0.8l0.5,3.5c0,0.3-0.1,0.6-0.3,0.9
		c-0.2,0.2-0.5,0.3-0.9,0.3l-3.5-0.5l-0.8,2l2.8,2.1c0.3,0.2,0.4,0.5,0.4,0.8c0,0.3-0.2,0.6-0.4,0.8l-2.8,2.1l0.8,2l3.5-0.5
		c0.3,0,0.6,0.1,0.9,0.3c0.2,0.2,0.3,0.5,0.3,0.9l-0.5,3.5l2,0.8l2.1-2.8C163.4,134.7,163.7,134.6,164,134.6z" class="colora09cad svgShape"/><circle cx="164" cy="128" r="3.5" fill="#ad9c9c" class="colora09cad svgShape"/><path fill="#fff" d="M142,18.5l-1.4-3.4l-4.2,0.6l0.6-4.2l-3.4-1.4l-2.5,3.4l-2.5-3.4l-3.4,1.4l0.6,4.2l-4.2-0.6l-1.4,3.4l3.4,2.5
		l-3.4,2.5l1.4,3.4l4.2-0.6l-0.6,4.2l3.4,1.4l2.5-3.4l2.5,3.4l3.4-1.4l-0.6-4.2l4.2,0.6l1.4-3.4l-3.4-2.5L142,18.5z" class="colorffffff svgShape"/><path fill="#ad9c9c" d="M133.5,33c-0.3,0-0.6-0.1-0.8-0.4l-1.7-2.4l-1.7,2.4c-0.3,0.4-0.8,0.5-1.2,0.3l-3.4-1.4
		c-0.4-0.2-0.7-0.6-0.6-1.1l0.4-2.9l-2.9,0.4c-0.5,0.1-0.9-0.2-1.1-0.6l-1.4-3.4c-0.2-0.4,0-0.9,0.3-1.2l2.4-1.7l-2.4-1.7
		c-0.4-0.3-0.5-0.8-0.3-1.2l1.4-3.4c0.2-0.4,0.6-0.7,1.1-0.6l2.9,0.4l-0.4-2.9c-0.1-0.5,0.2-0.9,0.6-1.1l3.4-1.4
		c0.4-0.2,0.9,0,1.2,0.3l1.7,2.4l1.7-2.4c0.3-0.4,0.8-0.5,1.2-0.3l3.4,1.4c0.4,0.2,0.7,0.6,0.6,1.1l-0.4,2.9l2.9-0.4
		c0.4-0.1,0.9,0.2,1.1,0.6l1.4,3.4c0.2,0.4,0,0.9-0.3,1.2l-2.4,1.7l2.4,1.7c0.4,0.3,0.5,0.8,0.3,1.2l-1.4,3.4
		c-0.2,0.4-0.6,0.7-1.1,0.6l-2.9-0.4l0.4,2.9c0.1,0.5-0.2,0.9-0.6,1.1l-3.4,1.4C133.8,33,133.7,33,133.5,33z M131,27.6L131,27.6
		c0.3,0,0.6,0.2,0.8,0.4l2.1,2.8l2-0.8l-0.5-3.5c0-0.3,0.1-0.6,0.3-0.9c0.2-0.2,0.5-0.3,0.9-0.3l3.5,0.5l0.8-2l-2.8-2.1
		c-0.3-0.2-0.4-0.5-0.4-0.8c0-0.3,0.2-0.6,0.4-0.8l2.8-2.1l-0.8-2l-3.5,0.5c-0.3,0-0.6-0.1-0.9-0.3c-0.2-0.2-0.3-0.5-0.3-0.9
		l0.5-3.5l-2-0.8l-2.1,2.8c-0.2,0.3-0.5,0.4-0.8,0.4l0,0c-0.3,0-0.6-0.2-0.8-0.4l-2.1-2.8l-2,0.8l0.5,3.5c0,0.3-0.1,0.6-0.3,0.9
		c-0.2,0.2-0.5,0.3-0.9,0.3l-3.5-0.5l-0.8,2l2.8,2.1c0.3,0.2,0.4,0.5,0.4,0.8s-0.2,0.6-0.4,0.8l-2.8,2.1l0.8,2l3.5-0.5
		c0.3,0,0.6,0.1,0.9,0.3c0.2,0.2,0.3,0.5,0.3,0.9l-0.5,3.5l2,0.8l2.1-2.8C130.4,27.7,130.7,27.6,131,27.6z" class="colora09cad svgShape"/><circle cx="131" cy="21" r="3.5" fill="#ad9c9c" class="colora09cad svgShape"/><path fill="#fff" d="M27,51.5L25.6,48l-4.2,0.6l0.6-4.2L18.5,43L16,46.4L13.5,43L10,44.4l0.6,4.2L6.4,48L5,51.5L8.4,54L5,56.5
		L6.4,60l4.2-0.6L10,63.6l3.4,1.4l2.5-3.4l2.5,3.4l3.4-1.4l-0.6-4.2l4.2,0.6l1.4-3.4L23.6,54L27,51.5z" class="colorffffff svgShape"/><path fill="#ad9c9c" d="M18.5,66c-0.3,0-0.6-0.1-0.8-0.4L16,63.2l-1.7,2.4c-0.3,0.4-0.8,0.5-1.2,0.3l-3.4-1.4C9.2,64.3,9,63.9,9,63.4
		l0.4-2.9L6.6,61c-0.5,0.1-0.9-0.2-1.1-0.6l-1.4-3.4c-0.2-0.4,0-0.9,0.3-1.2L6.8,54l-2.4-1.7C4,52,3.9,51.5,4.1,51.1l1.4-3.4
		C5.7,47.2,6.1,47,6.6,47l2.9,0.4L9,44.6c-0.1-0.5,0.2-0.9,0.6-1.1l3.4-1.4c0.4-0.2,0.9,0,1.2,0.3l1.7,2.4l1.7-2.4
		c0.3-0.4,0.8-0.5,1.2-0.3l3.4,1.4c0.4,0.2,0.7,0.6,0.6,1.1l-0.4,2.9l2.9-0.4c0.4-0.1,0.9,0.2,1.1,0.6l1.4,3.4
		c0.2,0.4,0,0.9-0.3,1.2L25.2,54l2.4,1.7c0.4,0.3,0.5,0.8,0.3,1.2l-1.4,3.4c-0.2,0.4-0.6,0.7-1.1,0.6l-2.9-0.4l0.4,2.9
		c0.1,0.5-0.2,0.9-0.6,1.1l-3.4,1.4C18.8,66,18.7,66,18.5,66z M16,60.6L16,60.6c0.3,0,0.6,0.2,0.8,0.4l2.1,2.8l2-0.8l-0.5-3.5
		c0-0.3,0.1-0.6,0.3-0.9c0.2-0.2,0.5-0.3,0.9-0.3l3.5,0.5l0.8-2L23,54.8c-0.3-0.2-0.4-0.5-0.4-0.8c0-0.3,0.2-0.6,0.4-0.8l2.8-2.1
		l-0.8-2l-3.5,0.5c-0.3,0-0.6-0.1-0.9-0.3c-0.2-0.2-0.3-0.5-0.3-0.9l0.5-3.5l-2-0.8L16.8,47c-0.2,0.3-0.5,0.4-0.8,0.4l0,0
		c-0.3,0-0.6-0.2-0.8-0.4l-2.1-2.8l-2,0.8l0.5,3.5c0,0.3-0.1,0.6-0.3,0.9c-0.2,0.2-0.5,0.3-0.9,0.3L7,49.1l-0.8,2L9,53.2
		c0.3,0.2,0.4,0.5,0.4,0.8c0,0.3-0.2,0.6-0.4,0.8l-2.8,2.1l0.8,2l3.5-0.5c0.3,0,0.6,0.1,0.9,0.3c0.2,0.2,0.3,0.5,0.3,0.9L11.1,63
		l2,0.8l2.1-2.8C15.4,60.7,15.7,60.6,16,60.6z" class="colora09cad svgShape"/><circle cx="16" cy="54" r="3.5" fill="#ad9c9c" class="colora09cad svgShape"/><path fill="#fff" d="M37,141.5l-1.4-3.4l-4.2,0.6l0.6-4.2l-3.4-1.4l-2.5,3.4l-2.5-3.4l-3.4,1.4l0.6,4.2l-4.2-0.6l-1.4,3.4l3.4,2.5
		l-3.4,2.5l1.4,3.4l4.2-0.6l-0.6,4.2l3.4,1.4l2.5-3.4l2.5,3.4l3.4-1.4l-0.6-4.2l4.2,0.6l1.4-3.4l-3.4-2.5L37,141.5z" class="colorffffff svgShape"/><path fill="#ad9c9c" d="M28.5,156c-0.3,0-0.6-0.1-0.8-0.4l-1.7-2.4l-1.7,2.4c-0.3,0.4-0.8,0.5-1.2,0.3l-3.4-1.4
		c-0.4-0.2-0.7-0.6-0.6-1.1l0.4-2.9l-2.9,0.4c-0.4,0.1-0.9-0.2-1.1-0.6l-1.4-3.4c-0.2-0.4,0-0.9,0.3-1.2l2.4-1.7l-2.4-1.7
		c-0.4-0.3-0.5-0.8-0.3-1.2l1.4-3.4c0.2-0.4,0.6-0.7,1.1-0.6l2.9,0.4l-0.4-2.9c-0.1-0.5,0.2-0.9,0.6-1.1l3.4-1.4
		c0.4-0.2,0.9,0,1.2,0.3l1.7,2.4l1.7-2.4c0.3-0.4,0.8-0.5,1.2-0.3l3.4,1.4c0.4,0.2,0.7,0.6,0.6,1.1l-0.4,2.9l2.9-0.4
		c0.4-0.1,0.9,0.2,1.1,0.6l1.4,3.4c0.2,0.4,0,0.9-0.3,1.2l-2.4,1.7l2.4,1.7c0.4,0.3,0.5,0.8,0.3,1.2l-1.4,3.4
		c-0.2,0.4-0.6,0.7-1.1,0.6l-2.9-0.4l0.4,2.9c0.1,0.5-0.2,0.9-0.6,1.1l-3.4,1.4C28.8,156,28.7,156,28.5,156z M26,150.6L26,150.6
		c0.3,0,0.6,0.2,0.8,0.4l2.1,2.8l2-0.8l-0.5-3.5c0-0.3,0.1-0.6,0.3-0.9c0.2-0.2,0.5-0.3,0.9-0.3l3.5,0.5l0.8-2l-2.8-2.1
		c-0.3-0.2-0.4-0.5-0.4-0.8c0-0.3,0.2-0.6,0.4-0.8l2.8-2.1l-0.8-2l-3.5,0.5c-0.3,0-0.6-0.1-0.9-0.3c-0.2-0.2-0.3-0.5-0.3-0.9
		l0.5-3.5l-2-0.8l-2.1,2.8c-0.2,0.3-0.5,0.4-0.8,0.4l0,0c-0.3,0-0.6-0.2-0.8-0.4l-2.1-2.8l-2,0.8l0.5,3.5c0,0.3-0.1,0.6-0.3,0.9
		c-0.2,0.2-0.5,0.3-0.9,0.3l-3.5-0.5l-0.8,2l2.8,2.1c0.3,0.2,0.4,0.5,0.4,0.8c0,0.3-0.2,0.6-0.4,0.8l-2.8,2.1l0.8,2l3.5-0.5
		c0.3,0,0.6,0.1,0.9,0.3c0.2,0.2,0.3,0.5,0.3,0.9l-0.5,3.5l2,0.8l2.1-2.8C25.4,150.7,25.7,150.6,26,150.6z" class="colora09cad svgShape"/><circle cx="26" cy="144" r="3.5" fill="#ad9c9c" class="colora09cad svgShape"/><path fill="#fff" d="M129,156.5l-1.4-3.4l-4.2,0.6l0.6-4.2l-3.4-1.4l-2.5,3.4l-2.5-3.4l-3.4,1.4l0.6,4.2l-4.2-0.6l-1.4,3.4
		l3.4,2.5l-3.4,2.5l1.4,3.4l4.2-0.6l-0.6,4.2l3.4,1.4l2.5-3.4l2.5,3.4l3.4-1.4l-0.6-4.2l4.2,0.6l1.4-3.4l-3.4-2.5L129,156.5z" class="colorffffff svgShape"/><path fill="#ad9c9c" d="M120.5,171c-0.3,0-0.6-0.1-0.8-0.4l-1.7-2.4l-1.7,2.4c-0.3,0.4-0.8,0.5-1.2,0.3l-3.4-1.4
		c-0.4-0.2-0.7-0.6-0.6-1.1l0.4-2.9l-2.9,0.4c-0.4,0.1-0.9-0.2-1.1-0.6l-1.4-3.4c-0.2-0.4,0-0.9,0.3-1.2l2.4-1.7l-2.4-1.7
		c-0.4-0.3-0.5-0.8-0.3-1.2l1.4-3.4c0.2-0.4,0.6-0.7,1.1-0.6l2.9,0.4l-0.4-2.9c-0.1-0.5,0.2-0.9,0.6-1.1l3.4-1.4
		c0.4-0.2,0.9,0,1.2,0.3l1.7,2.4l1.7-2.4c0.3-0.4,0.8-0.5,1.2-0.3l3.4,1.4c0.4,0.2,0.7,0.6,0.6,1.1l-0.4,2.9l2.9-0.4
		c0.4-0.1,0.9,0.2,1.1,0.6l1.4,3.4c0.2,0.4,0,0.9-0.3,1.2l-2.4,1.7l2.4,1.7c0.4,0.3,0.5,0.8,0.3,1.2l-1.4,3.4
		c-0.2,0.4-0.6,0.7-1.1,0.6l-2.9-0.4l0.4,2.9c0.1,0.5-0.2,0.9-0.6,1.1l-3.4,1.4C120.8,171,120.7,171,120.5,171z M118,165.6
		L118,165.6c0.3,0,0.6,0.2,0.8,0.4l2.1,2.8l2-0.8l-0.5-3.5c0-0.3,0.1-0.6,0.3-0.9c0.2-0.2,0.5-0.3,0.9-0.3l3.5,0.5l0.8-2l-2.8-2.1
		c-0.3-0.2-0.4-0.5-0.4-0.8c0-0.3,0.2-0.6,0.4-0.8l2.8-2.1l-0.8-2l-3.5,0.5c-0.3,0-0.6-0.1-0.9-0.3c-0.2-0.2-0.3-0.5-0.3-0.9
		l0.5-3.5l-2-0.8l-2.1,2.8c-0.2,0.3-0.5,0.4-0.8,0.4l0,0c-0.3,0-0.6-0.2-0.8-0.4l-2.1-2.8l-2,0.8l0.5,3.5c0,0.3-0.1,0.6-0.3,0.9
		c-0.2,0.2-0.5,0.3-0.9,0.3l-3.5-0.5l-0.8,2l2.8,2.1c0.3,0.2,0.4,0.5,0.4,0.8c0,0.3-0.2,0.6-0.4,0.8l-2.8,2.1l0.8,2l3.5-0.5
		c0.3,0,0.6,0.1,0.9,0.3c0.2,0.2,0.3,0.5,0.3,0.9l-0.5,3.5l2,0.8l2.1-2.8C117.4,165.7,117.7,165.6,118,165.6z" class="colora09cad svgShape"/><circle cx="118" cy="159" r="3.5" fill="#ad9c9c" class="colora09cad svgShape"/><defs><circle id="a" cx="90" cy="93" r="65"/></defs><clipPath id="b"><use class="color000000 svgShape" overflow="visible" xlink:href="#a"/></clipPath><path fill="#ad9c9c" d="M135.8,108.1l4-4c1.3-1.4,2-3.3,2-5.3V86.1c0-2-1.3-3.9-3.1-4.3c-2.5-0.5-4.7,1.5-4.7,4.1V69.4
			c0-1.7-1.2-3.4-2.9-3.6c-2.2-0.4-4.1,1.3-4.1,3.4h0V64c0-2.1-1.9-3.8-4.1-3.4c-1.7,0.3-2.9,1.9-2.9,3.6l0,1.7
			c0-2.1-1.9-3.8-4.1-3.4c-1.7,0.3-2.9,1.9-2.9,3.6v5.1h0c0-2.1-1.9-3.8-4.1-3.4c-1.7,0.3-2.9,1.9-2.9,3.6v17.9
			c0,5.4,0.5,10.8,1.4,16.1l2.4,13.5h-6.3V170h33.3v-51.2H134v-6.4C134,110.8,134.7,109.3,135.8,108.1z" class="colora09cad svgShape" clip-path="url(#b)"/><rect width="59" height="33.2" x="116" y="50.2" fill="#ff6e6e" class="colorff6e86 svgShape" clip-path="url(#b)"/><path fill="#a12a2a" d="M134 69.4c0-1.7-1.2-3.4-2.9-3.6-2.2-.4-4.1 1.3-4.1 3.4h0V64c0-2.1-1.9-3.8-4.1-3.4-1.7.3-2.9 1.9-2.9 3.6l0 1.7c0-2.1-1.9-3.8-4.1-3.4-1.7.3-2.9 1.9-2.9 3.6v5.1h0c0-2.1-1.9-3.8-4.1-3.4-1.7.3-2.9 1.9-2.9 3.6v12.1h28V69.4zM138.7 81.8c-1.6-.4-3.1.4-4 1.6h6.3C140.5 82.6 139.7 82 138.7 81.8z" class="colorff5067 svgShape" clip-path="url(#b)"/><path fill="#383838" d="M175,84.4h-59c-0.6,0-1-0.4-1-1V65.2c0-0.6,0.4-1,1-1c0.6,0,1,0.4,1,1v17.2h57V51.2h-57v6c0,0.6-0.4,1-1,1
			c-0.6,0-1-0.4-1-1v-7c0-0.6,0.4-1,1-1h59c0.6,0,1,0.4,1,1v33.2C176,84,175.6,84.4,175,84.4z" class="color34234d svgShape" clip-path="url(#b)"/><path fill="#fff" d="M130,118.8v-6.4c0-1.6,0.6-3.2,1.8-4.3l4-4c1.3-1.4,2-3.3,2-5.3V86.1c0-2-1.3-3.9-3.1-4.3
			c-2.5-0.5-4.7,1.5-4.7,4.1V69.4c0-1.7-1.2-3.4-2.9-3.6c-2.2-0.4-4.1,1.3-4.1,3.4h0V64c0-2.1-1.9-3.8-4.1-3.4
			c-1.7,0.3-2.9,1.9-2.9,3.6l0,1.7c0-2.1-1.9-3.8-4.1-3.4c-1.7,0.3-2.9,1.9-2.9,3.6v5.1h0c0-2.1-1.9-3.8-4.1-3.4
			c-1.7,0.3-2.9,1.9-2.9,3.6v17.9c0,5.4,0.5,10.8,1.4,16.1l2.4,13.5L130,118.8z" class="colorffffff svgShape" clip-path="url(#b)"/><path fill="#ad9c9c" d="M127.4,121.6c-0.2-1.5-1.3-2.8-2.8-3.4c0.8-1,1.2-2.3,1-3.6c-0.3-2.1-2.3-3.8-4.6-3.8h-1.3
			c0.6-0.9,0.9-2.1,0.7-3.2c-0.3-2.1-2.3-3.8-4.6-3.8l-18,0c-5.5,0-11,0.5-16.3,1.4L67,107.9v25.9h7.4c1.4,0,2.7,0.5,3.7,1.5l4.1,4
			c1.6,1.5,3.7,2.3,6,2.3h12.7c2.6,0,4.8-1.6,5.3-3.9c0.3-1.4,0-2.8-0.9-3.9h12.3c2.3,0,4.3-1.6,4.6-3.7c0.2-1.1-0.1-2.3-0.7-3.2
			h1.5c1.3,0,2.6-0.6,3.4-1.6C127.3,124.2,127.6,122.9,127.4,121.6z M101,132.8L101,132.8L101,132.8L101,132.8z" class="colora09cad svgShape" clip-path="url(#b)"/><path fill="#383838" d="M105.9,119.8c-0.5,0-0.9-0.3-1-0.8l-2.4-13.5c-1-5.4-1.4-10.8-1.4-16.3V71.3c0-2.3,1.6-4.3,3.8-4.6
			c1.1-0.2,2.3,0.1,3.2,0.7v-1.3c0-2.3,1.6-4.3,3.8-4.6c1.3-0.2,2.6,0.1,3.6,1c0.6-1.5,1.9-2.6,3.4-2.8c1.3-0.2,2.7,0.2,3.7,1
			c1,0.9,1.6,2.1,1.6,3.4v1.5c0.9-0.6,2.1-0.9,3.3-0.7c2.1,0.3,3.8,2.3,3.8,4.6v12.3c1.1-0.9,2.5-1.2,3.9-0.9
			c2.3,0.5,3.9,2.7,3.9,5.3v12.7c0,2.2-0.8,4.4-2.3,6l-4,4.1c-1,1-1.5,2.3-1.5,3.6v6.4c0,0.6-0.4,1-1,1c-0.6,0-1-0.4-1-1v-6.4
			c0-1.9,0.7-3.7,2.1-5l4-4c1.1-1.2,1.7-2.9,1.7-4.6V86.1c0-1.6-1-3-2.3-3.3c-0.8-0.2-1.6,0-2.3,0.5c-0.8,0.6-1.2,1.6-1.2,2.6
			c0,0.6-0.4,1-1,1c-0.6,0-1-0.4-1-1V69.4c0-1.3-0.9-2.5-2.1-2.6c-0.8-0.1-1.5,0.1-2.1,0.6c-0.6,0.5-0.9,1.2-0.9,1.9l0,0
			c0,0.6-0.4,1-1,1c-0.6,0-1-0.4-1-1c0,0,0-0.1,0-0.1l0-5.1c0-0.7-0.3-1.4-0.9-1.9c-0.6-0.5-1.3-0.7-2-0.6c-1.2,0.2-2.1,1.3-2.1,2.7
			l0,1.6c0,0,0,0,0,0v0v0c0,0.6-0.4,1-1,1l0,0c-0.6,0-1-0.4-1-1v0c0-0.7-0.3-1.4-0.9-1.9c-0.6-0.5-1.3-0.7-2-0.6
			c-1.2,0.2-2.1,1.3-2.1,2.7v5.1c0,0.6-0.4,1-1,1c-0.3,0-0.5-0.1-0.7-0.3c-0.2-0.2-0.3-0.4-0.3-0.7c0-0.7-0.3-1.4-0.9-1.9
			c-0.6-0.5-1.3-0.7-2-0.6c-1.2,0.2-2.1,1.3-2.1,2.7v17.9c0,5.3,0.5,10.7,1.4,15.9l2.4,13.5c0.1,0.5-0.3,1.1-0.8,1.2
			C106,119.8,105.9,119.8,105.9,119.8z" class="color34234d svgShape" clip-path="url(#b)"/><path fill="#383838" d="M123 82.9c-.6 0-1-.4-1-1V69.3c0-.6.4-1 1-1 .6 0 1 .4 1 1v12.7C124 82.5 123.6 82.9 123 82.9zM109 85.1c-.6 0-1-.4-1-1v-13c0-.6.4-1 1-1 .6 0 1 .4 1 1v13C110 84.6 109.6 85.1 109 85.1zM127.5 98.1c-.2 0-.5-.1-.7-.3-.4-.4-.4-1-.1-1.4l1.6-1.7c.4-.5.7-1.1.7-1.8v-7c0-.6.4-1 1-1 .6 0 1 .4 1 1v7c0 1.2-.4 2.3-1.2 3.2l-1.6 1.7C128 98 127.8 98.1 127.5 98.1zM116 84c-.6 0-1-.4-1-1V65.9c0-.6.4-1 1-1 .6 0 1 .4 1 1V83C117 83.6 116.6 84 116 84z" class="color34234d svgShape" clip-path="url(#b)"/><rect width="33.3" height="51.2" x="99.5" y="118.8" fill="#f40000" class="color00b5f4 svgShape" clip-path="url(#b)"/><path fill="#383838" d="M132.8,171H99.5c-0.6,0-1-0.4-1-1v-51.2c0-0.6,0.4-1,1-1h17.3c0.6,0,1,0.4,1,1c0,0.6-0.4,1-1,1h-16.3V169
			h31.3v-49.2h-7.1c-0.6,0-1-0.4-1-1c0-0.6,0.4-1,1-1h8.1c0.6,0,1,0.4,1,1V170C133.8,170.6,133.4,171,132.8,171z" class="color34234d svgShape" clip-path="url(#b)"/><path fill="#fff" d="M64,132.8h6.4c1.6,0,3.2,0.6,4.4,1.8l4.1,4c1.4,1.3,3.3,2,5.3,2h12.7c2,0,3.9-1.3,4.3-3.1
			c0.5-2.5-1.5-4.7-4.1-4.7h16.5c1.7,0,3.4-1.2,3.6-2.9c0.4-2.2-1.3-4.1-3.5-4.1l0,0h5.2c2.1,0,3.8-1.9,3.5-4.1
			c-0.3-1.7-1.9-2.9-3.7-2.9l-1.7,0c2.1,0,3.8-1.9,3.5-4.1c-0.3-1.7-1.9-2.9-3.7-2.9h-5.1v0c2.1,0,3.8-1.9,3.5-4.1
			c-0.3-1.7-1.9-2.9-3.7-2.9l-18,0c-5.4,0-10.8,0.5-16.2,1.4L64,108.7V132.8z" class="colorffffff svgShape" clip-path="url(#b)"/><path fill="#ad9c9c" d="M64,108.2v19.6c0.5-0.3,1-0.7,1.5-1.2c1,0.3,2.1,0.4,3.1,0.2c2.7-0.4,4.9-2.5,5.6-5.2c0.5,0,0.9,0,1.4-0.1
			c3.4-0.5,5.9-3.6,5.9-7.1v-8.8L64,108.2z" class="colora09cad svgShape" clip-path="url(#b)"/><path fill="#383838" d="M96.9,141.6H84.1c-2.3,0-4.4-0.8-6-2.3l-4.1-4c-1-1-2.3-1.5-3.7-1.5H64c-0.6,0-1-0.4-1-1c0-0.6,0.4-1,1-1h6.4
			c1.9,0,3.7,0.7,5.1,2.1l4.1,4c1.2,1.1,2.9,1.7,4.6,1.7h12.7c1.6,0,3-1,3.3-2.3c0.2-0.8,0-1.6-0.5-2.3c-0.6-0.8-1.6-1.2-2.6-1.2
			c-0.6,0-1-0.4-1-1c0-0.6,0.4-1,1-1h16.5c1.3,0,2.5-0.9,2.7-2.1c0.1-0.7-0.1-1.5-0.6-2c-0.5-0.6-1.2-0.9-1.9-0.9c0,0,0,0,0,0h0
			c-0.3,0-0.7-0.2-0.9-0.5c-0.2-0.3-0.2-0.7,0-1c0.2-0.3,0.5-0.6,0.9-0.6h5.2c0.7,0,1.4-0.3,1.9-0.9c0.5-0.6,0.7-1.3,0.6-2
			c-0.2-1.2-1.3-2.1-2.7-2.1c0,0,0,0,0,0l-1.7,0l0,0c-0.6,0-1-0.4-1-1c0-0.6,0.4-1,1-1l0,0c0.7,0,1.4-0.3,1.9-0.9
			c0.5-0.6,0.7-1.3,0.6-2c-0.2-1.2-1.3-2.1-2.7-2.1h-5.1c-0.6,0-1-0.4-1-1c0-0.3,0.1-0.5,0.3-0.7s0.4-0.3,0.7-0.3h0c0,0,0,0,0,0
			c0.7,0,1.4-0.3,1.9-0.9c0.5-0.6,0.7-1.3,0.6-2c-0.2-1.2-1.3-2.1-2.7-2.1l-18,0c-5.3,0-10.7,0.5-16,1.4l-13.5,2.4
			c-0.5,0.1-1.1-0.3-1.2-0.8c-0.1-0.5,0.3-1.1,0.8-1.2l13.5-2.4c5.4-1,10.9-1.4,16.3-1.4l0,0l18,0c2.3,0,4.3,1.6,4.6,3.8
			c0.2,1.1-0.1,2.3-0.7,3.2h1.3c2.3,0,4.3,1.6,4.6,3.8c0.2,1.3-0.1,2.6-1,3.6c1.5,0.6,2.6,1.9,2.8,3.4c0.2,1.3-0.2,2.6-1,3.6
			c-0.9,1-2.1,1.6-3.4,1.6h-1.5c0.6,0.9,0.9,2.1,0.7,3.2c-0.3,2.1-2.3,3.7-4.6,3.7h-12.3c0.9,1.1,1.2,2.5,0.9,3.9
			C101.7,140,99.4,141.6,96.9,141.6z" class="color34234d svgShape" clip-path="url(#b)"/><path fill="#383838" d="M113.7 126.8H101c-.6 0-1-.4-1-1 0-.6.4-1 1-1h12.7c.6 0 1 .4 1 1C114.7 126.4 114.3 126.8 113.7 126.8zM111.9 112.9h-13c-.6 0-1-.4-1-1 0-.6.4-1 1-1h13c.6 0 1 .4 1 1C112.9 112.4 112.4 112.9 111.9 112.9zM97 133.8L97 133.8l-7.1 0c-1.2 0-2.3-.4-3.2-1.2l-1.7-1.6c-.4-.4-.4-1-.1-1.4.4-.4 1-.4 1.4-.1l1.7 1.6c.5.4 1.2.7 1.8.7l7.1 0c.6 0 1 .4 1 1C98 133.4 97.6 133.8 97 133.8zM99.9 119.8c-.6 0-1-.4-1-1 0-.6.4-1 1-1l17.2 0c.6 0 1 .4 1 1 0 .6-.4 1-1 1L99.9 119.8z" class="color34234d svgShape" clip-path="url(#b)"/><rect width="59" height="33.2" x="5" y="102.4" fill="#ff6e6e" class="colorff6e86 svgShape" clip-path="url(#b)"/><path fill="#383838" d="M64,136.6H5c-0.6,0-1-0.4-1-1v-33.2c0-0.6,0.4-1,1-1h59c0.6,0,1,0.4,1,1v18.2c0,0.6-0.4,1-1,1
			c-0.6,0-1-0.4-1-1v-17.2H6v31.2h57v-6c0-0.6,0.4-1,1-1c0.6,0,1,0.4,1,1v7C65,136.2,64.5,136.6,64,136.6z" class="color34234d svgShape" clip-path="url(#b)"/><path fill="#fff" d="M50,67v6.4c0,1.6-0.6,3.2-1.8,4.3l-4,4c-1.3,1.4-2,3.3-2,5.3v12.7c0,2,1.3,3.9,3.1,4.3
			c2.5,0.5,4.7-1.5,4.7-4.1v16.5c0,1.7,1.2,3.4,2.9,3.6c2.2,0.4,4.1-1.3,4.1-3.4h0v5.2c0,2.1,1.9,3.8,4.1,3.4
			c1.7-0.3,2.9-1.9,2.9-3.6l0-1.7c0,2.1,1.9,3.8,4.1,3.4c1.7-0.3,2.9-1.9,2.9-3.6v-5.1h0c0,2.1,1.9,3.8,4.1,3.4
			c1.7-0.3,2.9-1.9,2.9-3.6V96.6c0-5.4-0.5-10.8-1.4-16.1L74.1,67L50,67z" class="colorffffff svgShape" clip-path="url(#b)"/><path fill="#383838" d="M60.5,126.3c-1.1,0-2.1-0.4-2.9-1.1c-1-0.9-1.6-2.1-1.6-3.4v-1.5c-0.9,0.6-2.1,0.9-3.3,0.7
			c-2.1-0.3-3.8-2.3-3.8-4.6v-12.3c-1.1,0.9-2.5,1.2-3.9,0.9c-2.3-0.5-3.9-2.7-3.9-5.3V87c0-2.2,0.8-4.4,2.3-6l4-4.1
			c1-1,1.5-2.3,1.5-3.6V67c0-0.6,0.4-1,1-1c0.6,0,1,0.4,1,1v6.4c0,1.9-0.7,3.7-2.1,5l-4,4c-1.1,1.2-1.7,2.9-1.7,4.6v12.7
			c0,1.6,1,3,2.3,3.3c0.8,0.2,1.6,0,2.3-0.5c0.8-0.6,1.2-1.6,1.2-2.6c0-0.6,0.4-1,1-1c0.6,0,1,0.4,1,1v16.5c0,1.3,0.9,2.5,2.1,2.6
			c0.7,0.1,1.5-0.1,2.1-0.6c0.6-0.5,0.9-1.2,0.9-1.9l0,0c0-0.6,0.4-1,1-1c0.6,0,1,0.4,1,1c0,0,0,0.1,0,0.1l0,5.1
			c0,0.7,0.3,1.4,0.9,1.9c0.6,0.5,1.3,0.7,2,0.6c1.2-0.2,2.1-1.3,2.1-2.7l0-1.6c0,0,0,0,0,0v0v0c0-0.6,0.4-1,1-1l0,0
			c0.6,0,1,0.4,1,1v0c0,0.7,0.3,1.4,0.9,1.9c0.6,0.5,1.3,0.7,2,0.6c1.2-0.2,2.1-1.3,2.1-2.7v-5.1c0-0.6,0.4-1,1-1
			c0.3,0,0.5,0.1,0.7,0.3c0.2,0.2,0.3,0.4,0.3,0.7c0,0.7,0.3,1.4,0.9,1.9c0.6,0.5,1.3,0.7,2,0.6c1.2-0.2,2.1-1.3,2.1-2.7V96.6
			c0-5.3-0.5-10.7-1.4-15.9l-2.4-13.5c-0.1-0.5,0.3-1.1,0.8-1.2c0.5-0.1,1.1,0.3,1.2,0.8l2.4,13.5c1,5.4,1.4,10.8,1.4,16.3v17.9
			c0,2.3-1.6,4.3-3.8,4.6c-1.1,0.2-2.3-0.1-3.2-0.7v1.3c0,2.3-1.6,4.3-3.8,4.6c-1.3,0.2-2.6-0.1-3.6-1c-0.6,1.5-1.9,2.6-3.4,2.8
			C61,126.3,60.7,126.3,60.5,126.3z" class="color34234d svgShape" clip-path="url(#b)"/><path fill="#383838" d="M57 117.6c-.6 0-1-.4-1-1v-12.7c0-.6.4-1 1-1s1 .4 1 1v12.7C58 117.1 57.5 117.6 57 117.6zM71 115.7c-.6 0-1-.4-1-1v-13c0-.6.4-1 1-1 .6 0 1 .4 1 1v13C72 115.2 71.5 115.7 71 115.7zM50 100.9c-.6 0-1-.4-1-1v-7c0-1.2.4-2.3 1.2-3.2l1.6-1.7c.4-.4 1-.4 1.4-.1.4.4.4 1 .1 1.4L51.7 91c-.4.5-.7 1.1-.7 1.8v7C51 100.5 50.5 100.9 50 100.9zM64 120.9c-.6 0-1-.4-1-1v-17.1c0-.6.4-1 1-1 .6 0 1 .4 1 1v17.1C65 120.5 64.5 120.9 64 120.9z" class="color34234d svgShape" clip-path="url(#b)"/><rect width="33.3" height="57" x="47.2" y="10" fill="#f22f2f" class="color2fc8f2 svgShape" clip-path="url(#b)"/><path fill="#383838" d="M80.5,68H62.2c-0.6,0-1-0.4-1-1c0-0.6,0.4-1,1-1h17.3V11H48.2v55h6.1c0.6,0,1,0.4,1,1c0,0.6-0.4,1-1,1h-7.1
			c-0.6,0-1-0.4-1-1V10c0-0.6,0.4-1,1-1h33.3c0.6,0,1,0.4,1,1v57C81.5,67.5,81,68,80.5,68z" class="color34234d svgShape" clip-path="url(#b)"/><path fill="#fff" d="M104.9,67.7c2.2-0.3,4.1,1.3,4.1,3.4h0v-5.1c0-1.7,1.2-3.4,2.9-3.6c2.2-0.3,4.1,1.3,4.1,3.4l0-1.7
			c0,0,0,0,0,0V53h-6.4c-1.6,0-3.2-0.6-4.4-1.8l-4.1-4c-1.4-1.3-3.3-2-5.3-2H83.1c-2,0-3.9,1.3-4.3,3.1C78.3,50.8,80.4,53,83,53
			H66.5c-1.7,0-3.4,1.2-3.6,2.9c-0.4,2.2,1.3,4.1,3.5,4.1v0H61c-2.1,0-3.8,1.9-3.5,4.1c0.3,1.7,1.9,2.9,3.7,2.9l1.7,0
			c-2.1,0-3.8,1.9-3.5,4.1c0.3,1.7,1.9,2.9,3.7,2.9h5.1v0c-2.1,0-3.8,1.9-3.5,4.1c0.3,1.7,1.9,2.9,3.7,2.9l18,0
			c5.3,0,10.5-0.5,15.7-1.4v-8.3C102,69.6,103.2,67.9,104.9,67.7z" class="colorffffff svgShape" clip-path="url(#b)"/><path fill="#383838" d="M68.3,81.9c-2.3,0-4.3-1.6-4.6-3.8c-0.2-1.1,0.1-2.3,0.7-3.2h-1.3c-2.3,0-4.3-1.6-4.6-3.8
			c-0.2-1.3,0.1-2.6,1-3.6c-1.5-0.6-2.6-1.9-2.8-3.4c-0.2-1.3,0.2-2.6,1-3.6c0.9-1,2.1-1.6,3.4-1.6h1.5c-0.6-0.9-0.9-2.1-0.7-3.2
			c0.4-2.1,2.3-3.7,4.6-3.7h0h12.3c-0.9-1.1-1.2-2.5-0.9-3.9c0.5-2.2,2.7-3.9,5.3-3.9h12.7c0,0,0,0,0,0c2.3,0,4.4,0.8,6,2.3l4.1,4
			c1,1,2.3,1.5,3.7,1.5h6.4c0.6,0,1,0.4,1,1c0,0.6-0.4,1-1,1h-6.4c-1.9,0-3.7-0.7-5.1-2.1l-4.1-4c-1.2-1.1-2.9-1.7-4.6-1.7
			c0,0,0,0,0,0H83.1c-1.6,0-3,1-3.3,2.3c-0.2,0.8,0,1.6,0.5,2.3C81,51.6,81.9,52,83,52c0.6,0,1,0.4,1,1c0,0.6-0.4,1-1,1H66.5h0
			c-1.3,0-2.5,0.9-2.7,2.1c-0.1,0.7,0.1,1.5,0.6,2c0.5,0.6,1.2,0.9,1.9,0.9c0,0,0,0,0,0l0,0c0.6,0,1,0.4,1,1c0,0.6-0.4,1-1,1h0
			c0,0-0.1,0-0.1,0L61,61c-0.7,0-1.4,0.3-1.9,0.9c-0.5,0.6-0.7,1.3-0.6,2c0.2,1.2,1.3,2.1,2.7,2.1c0,0,0,0,0,0l1.7,0l0,0
			c0.6,0,1,0.4,1,1c0,0.6-0.4,1-1,1l0,0c-0.7,0-1.4,0.3-1.9,0.9c-0.5,0.6-0.7,1.3-0.6,2c0.2,1.2,1.3,2.1,2.7,2.1h5.1
			c0.6,0,1,0.4,1,1c0,0.3-0.1,0.5-0.3,0.7S68.4,75,68.1,75h0c0,0,0,0,0,0c-0.7,0-1.4,0.3-1.9,0.9c-0.5,0.6-0.7,1.3-0.6,2
			c0.2,1.2,1.3,2.1,2.7,2.1l18,0c4.9,0,9.8-0.4,14.7-1.2v-7.4c0-2.3,1.6-4.3,3.8-4.6c1.1-0.2,2.3,0.1,3.2,0.7v-1.3
			c0-2.3,1.6-4.3,3.8-4.6c1.3-0.2,2.7,0.2,3.7,1c0.3,0.2,0.5,0.5,0.7,0.8c0.5,0.1,0.9,0.5,0.9,1c0,0,0,0,0,0l0,1.6c0,0,0,0,0,0v0v0
			c0,0.6-0.4,1-1,1l0,0c-0.6,0-1-0.4-1-1v0c0-0.7-0.3-1.4-0.9-1.9c-0.6-0.5-1.3-0.7-2-0.6c-1.2,0.2-2.1,1.3-2.1,2.7v5.1
			c0,0.6-0.4,1-1,1c-0.3,0-0.5-0.1-0.7-0.3c-0.2-0.2-0.3-0.4-0.3-0.7c0-0.7-0.3-1.4-0.9-1.9c-0.6-0.5-1.3-0.7-2-0.6
			c-1.2,0.2-2.1,1.3-2.1,2.7v8.3c0,0.5-0.4,0.9-0.8,1c-5.3,0.9-10.6,1.4-15.9,1.4L68.3,81.9z" class="color34234d svgShape" clip-path="url(#b)"/><path fill="#383838" d="M79 61H66.3c-.6 0-1-.4-1-1 0-.6.4-1 1-1H79c.6 0 1 .4 1 1C80 60.5 79.5 61 79 61zM81.2 75h-13c-.6 0-1-.4-1-1 0-.6.4-1 1-1h13c.6 0 1 .4 1 1C82.2 74.5 81.7 75 81.2 75zM94.3 56.5c-.2 0-.5-.1-.7-.3l-1.7-1.6C91.4 54.3 90.7 54 90 54L83 54c-.6 0-1-.4-1-1 0-.6.4-1 1-1l0 0 7.1 0c1.2 0 2.3.4 3.2 1.2l1.7 1.6c.4.4.4 1 .1 1.4C94.8 56.4 94.5 56.5 94.3 56.5zM62.9 68c-.6 0-1-.4-1-1 0-.6.4-1 1-1l17.2 0c.6 0 1 .4 1 1 0 .6-.4 1-1 1L62.9 68zM116 58.2c-.6 0-1-.4-1-1v-7c0-.6.4-1 1-1 .6 0 1 .4 1 1v7C117 57.8 116.6 58.2 116 58.2zM116 65.2c-.6 0-1-.4-1-1 0-2.3 1.6-4.3 3.8-4.6 1.3-.2 2.7.2 3.7 1 1 .9 1.6 2.1 1.6 3.4 0 .6-.4 1-1 1l0 0c-.6 0-1-.4-1-1 0-.7-.3-1.4-.9-1.9-.6-.5-1.3-.7-2-.6-1.2.2-2.1 1.3-2.1 2.7C117 64.8 116.6 65.2 116 65.2z" class="color34234d svgShape" clip-path="url(#b)"/><path fill="#383838" d="M90 159c-11.8 0-23.4-3.2-33.5-9.1-.5-.3-.6-.9-.4-1.4.3-.5.9-.6 1.4-.4 9.8 5.8 21 8.8 32.5 8.8 27 0 51.2-17 60.3-42.4.2-.5.8-.8 1.3-.6.5.2.8.8.6 1.3C142.8 141.4 117.8 159 90 159zM52.4 147c-.2 0-.4-.1-.6-.2C34.4 134.4 24 114.3 24 93c0-36.4 29.6-66 66-66s66 29.6 66 66c0 5.9-.8 11.7-2.3 17.2-.1.5-.7.8-1.2.7-.5-.1-.8-.7-.7-1.2 1.5-5.4 2.2-11 2.2-16.7 0-35.3-28.7-64-64-64S26 57.7 26 93c0 20.7 10.1 40.2 26.9 52.2.4.3.6.9.2 1.4C53 146.9 52.7 147 52.4 147z" class="color34234d svgShape"/></svg>