<svg xmlns="http://www.w3.org/2000/svg" enable-background="new 0 0 53 53" viewBox="0 0 53 53"><path fill="#ffb3b3" d="M36.45564,11.63872c-2.11642,0.61199-4.13454,1.53082-6.25237,2.13792
					c-4.14775,1.189-8.53428,1.14731-12.81207,1.71131s-8.72525,1.89526-11.57031,5.13921
					C2.12388,24.8425,2.16231,31.51117,4.99377,36.35057s7.95624,7.99225,13.32658,9.60359
					c4.43938,1.33201,9.20179,1.72946,13.73962,0.78578s8.83368-3.27603,11.83067-6.81163
					c2.0942-2.47056,3.50901-5.44276,4.68105-8.46197c1.49565-3.85284,2.64628-8.02372,1.90235-12.08918
					C49.18545,12.33524,42.87729,9.78181,36.45564,11.63872z" class="colorffb3d0 svgShape"/><circle cx="11.725" cy="10.359" r=".955" fill="#6d6d6d" class="color06d506 svgShape"/><path fill="#ff0202" d="M47.3685,40.25726c0-0.52755,0.4271-0.95465,0.95465-0.95465c0.52755,0,0.95465,0.4271,0.95465,0.95465
					c0,0.52754-0.42711,0.95465-0.95465,0.95465C47.7956,41.21191,47.3685,40.78481,47.3685,40.25726" class="color02beff svgShape"/><circle cx="36.868" cy="6.697" r=".955" fill="#fff" class="colorc7d9f9 svgShape"/><path fill="#a12a2a" d="M50.25402 32.09009c0 1.8691-1.51926 3.38839-3.38836 3.38839-1.8741 0-3.39339-1.51929-3.39339-3.38839 0-1.28756 1.60171-3.56579 2.60429-4.86571.40025-.51896 1.17759-.5187 1.57746.00055C48.65514 28.52495 50.25402 30.80271 50.25402 32.09009zM9.56817 33.76402c0 1.09238-.88506 1.96946-1.9695 1.96946-1.0844 0-1.96946-.87708-1.96946-1.96946 0-1.0844.88506-1.9695 1.96946-1.9695C8.68311 31.79451 9.56817 32.67962 9.56817 33.76402zM29.96762 30.39088c-.28964.50029-.81629.77675-1.35607.77675-.26328 0-.5332-.06581-.77675-.21065l-2.36317-1.36262v2.72524c0 .86233-.69776 1.56668-1.56009 1.56668-.43448 0-.82284-.17775-1.10589-.4608-.28309-.28305-.4608-.678-.4608-1.10589v-2.72524l-2.35662 1.36262c-.75044.43448-1.7049.17774-2.13279-.5661-.14484-.25014-.21065-.52002-.21065-.78334 0-.53979.28305-1.06639.78334-1.35603l2.3632-1.36262-2.3632-1.36262c-.75044-.42785-1.00717-1.38235-.57269-2.13279.28964-.50029.80966-.78334 1.34944-.78334.26332 0 .5332.0724.78334.21065l2.35662 1.36262v-2.72525c0-.86233.70435-1.56009 1.56668-1.56009.43444 0 .82284.17116 1.10589.45421.27646.28305.45421.67804.45421 1.10589v2.72525l2.36317-1.36262c.74385-.42789 1.69835-.17775 2.13283.57269.13821.25015.21061.52002.21061.78334 0 .53979-.28305 1.0598-.78334 1.34945l-2.36316 1.36262 2.36316 1.36262C30.14533 28.68595 30.39548 29.64045 29.96762 30.39088z" class="colorff5892 svgShape"/><path d="M41.13869,26.19873c0.04518-0.88805-0.26622-1.73043-0.87687-2.37363
				c-0.00048,0-0.00097-0.00097-0.00146-0.00097h6.11868c1.72946,0,3.2612-1.38842,3.34475-3.03141
				c0.094-1.84768-1.37312-3.36953-3.19852-3.36953H32.59828l2.25752-1.74403c1.75378-1.35501,1.97157-3.92816,0.4654-5.55661
				c-1.112-1.20382-2.85895-1.55262-4.35036-0.8725l-13.19003,6.04047c-2.03661,0.93238-3.62724,2.54293-4.58355,4.48299v-0.66458
				c0-2.18417-1.77707-3.96124-3.96124-3.96124H5.96172C3.77707,15.14769,2,16.92476,2,19.10893v16.49009
				c0,2.18417,1.77707,3.96124,3.96172,3.96124h3.27431c2.18417,0,3.96124-1.77707,3.96124-3.96124v-0.8872
				c1.56459,3.15553,4.81121,5.33521,8.56519,5.33521H34.0484c1.73092,0,3.26508-1.38843,3.35058-3.03238
				c0.07684-1.48017-0.81612-2.27899-0.87785-2.37849h0.41342c1.72703,0,3.25682-1.38745,3.34135-3.02946
				c0.05458-1.06384-0.40294-2.01883-1.16058-2.64277C40.2487,28.48783,41.07602,27.42781,41.13869,26.19873z M12.20234,35.59901
				c0,1.63521-1.33061,2.96631-2.96631,2.96631H5.96172c-1.6357,0-2.9668-1.3311-2.9668-2.96631V19.10893
				c0-1.63521,1.3311-2.96631,2.9668-2.96631h3.27431c1.6357,0,2.96631,1.3311,2.96631,2.96631
				C12.2006,24.20461,12.2022,30.50839,12.20234,35.59901z M37.79394,28.23522c-0.3775,0.00084-3.6317,0.00813-3.473,0.00777
				c-0.27497,0-0.49746,0.2225-0.49746,0.49746c0,0.27497,0.2225,0.49746,0.49746,0.49746h2.83891
				c1.25872,0.04349,2.1848,1.09526,2.12211,2.31825c-0.05684,1.11054-1.15378,2.08506-2.3474,2.08506
				c-1.32826-0.01331-1.56747-0.01571-5.31322-0.03109c-0.27497,0-0.49746,0.2225-0.49746,0.49746
				c0,0.27497,0.2225,0.49746,0.49746,0.49746c0.10029-0.00014,1.81396-0.00359,2.57913-0.00359
				c1.14876,0,2.27481,1.0177,2.20457,2.3607c-0.05732,1.11346-1.15864,2.08992-2.35663,2.08992H21.76245
				c-4.69905,0-8.52341-3.80347-8.56519-8.49286v-6.6261c0.02095-3.32125,1.97558-6.35418,4.99745-7.73708l13.19003-6.04047
				c0.37407-0.17197,0.76951-0.25456,1.16155-0.25456c0.75931,0,1.50405,0.31189,2.04426,0.89679
				c1.11203,1.2016,0.95286,3.09306-0.34298,4.09434l-3.41082,2.63499c-0.16857,0.1302-0.23561,0.35269-0.16663,0.55382
				c0.0685,0.20209,0.25796,0.33715,0.47074,0.33715h15.3844c1.25863,0,2.27028,1.04833,2.20457,2.32408
				c-0.05635,1.11152-1.15475,2.08701-2.3508,2.08701h-8.43888h-3.50215c-0.27496,0-0.49746,0.2225-0.49746,0.49746
				c0,0.27496,0.2225,0.49746,0.49746,0.49746h3.50215c1.26022,0,2.26917,1.05042,2.20457,2.32408
				C40.08644,27.29859,39.03176,28.23522,37.79394,28.23522z" class="color2e3f68 svgShape"/><path d="M48.24501 26.76906c-.33278-.43139-.83558-.67915-1.3792-.68012h-.00048c-.54361 0-1.04642.24776-1.37968.68012-1.83099 2.3746-2.75936 4.16527-2.75936 5.32148 0 2.27938 1.85674 4.13418 4.13952 4.13418 2.27939 0 4.13418-1.8548 4.13418-4.13418C51 30.93336 50.07309 29.14269 48.24501 26.76906zM46.86582 34.73234c-1.45984 0-2.64714-1.18536-2.64714-2.6418 0-.77243.91525-2.42124 2.44844-4.41012.06656-.0855.15254-.0991.19821-.0991.04567.00097.13165.0136.19724.0991 1.53125 1.9879 2.44505 3.63672 2.44505 4.41012C49.50761 33.54698 48.32274 34.73234 46.86582 34.73234zM7.59888 31.04801c-1.49724 0-2.71564 1.21839-2.71564 2.71564 0 1.49725 1.21839 2.71564 2.71564 2.71564s2.71564-1.21839 2.71564-2.71564C10.31451 32.26641 9.09612 31.04801 7.59888 31.04801zM7.59888 34.9869c-.67429 0-1.22325-.54896-1.22325-1.22325s.54896-1.22325 1.22325-1.22325 1.22325.54896 1.22325 1.22325S8.27317 34.9869 7.59888 34.9869zM30.61378 23.02061c-.63543-1.09986-2.04863-1.47878-3.1514-.84627l-1.24463.71704v-1.43312c0-1.25876-1.00454-2.30659-2.3061-2.30659-1.27523 0-2.31291 1.03476-2.31291 2.30659v1.43215l-1.24997-.72385c-1.11395-.61308-2.53055-.19821-3.13877.85307-.64568 1.1138-.25595 2.52645.8453 3.15286l1.2422.71607-1.24365.71704c-1.0924.63295-1.48967 2.04429-.84481 3.15772.62613 1.091 2.03395 1.4855 3.15286.83947l1.23685-.7151v1.43214c0 1.25485 1.02229 2.31242 2.31291 2.31242 1.27183 0 2.3061-1.03768 2.3061-2.31242v-1.43409l1.23588.71219c1.04593.6228 2.54561.22833 3.15966-.83267.00097-.00194.00194-.00291.00291-.00486.6296-1.10472.24922-2.52034-.84821-3.1548l-1.2422-.71704 1.24268-.71607C30.80745 25.57092 31.28145 24.22652 30.61378 23.02061zM29.02229 24.88026l-2.36294 1.36219c-.49959.28758-.49538 1.00676-.00049 1.29224l2.36246 1.36316c.38864.22444.52224.72773.29925 1.12221-.21472.36727-.7287.51786-1.11297.29051l-2.36343-1.36219c-.49468-.28804-1.1188.07212-1.1188.64612v2.72535c0 .4518-.36484.82004-.81372.82004-.45115 0-.82052-.37471-.82052-.82004v-2.72535c0-.57471-.62463-.93322-1.11978-.64612l-2.35663 1.36219c-.38769.22295-.88517.10173-1.11346-.29342-.22974-.39558-.08677-.89466.29926-1.11929l2.36343-1.36316c.49516-.28503.50012-1.00435 0-1.29224l-2.36635-1.36413c-.39202-.2243-.52304-.71905-.29634-1.11054.21958-.3799.72142-.51689 1.11346-.3012l2.35663 1.36316c.50435.29093 1.11978-.07995 1.11978-.64612v-2.72535c0-.44888.36824-.81421.82052-.81421.47342 0 .81372.37633.81372.81421v2.72535c0 .57151.62185.93548 1.1188.64612l2.36246-1.36219c.3901-.22444.88951-.08842 1.10812.28662C29.5603 24.19867 29.39408 24.66439 29.02229 24.88026z" class="color2e3f68 svgShape"/></svg>