<svg xmlns="http://www.w3.org/2000/svg" viewBox="0 0 24 24"><path fill="#a12a2a" d="M5.173 17.958C5.734 19.004 8.131 23 12 23s6.266-3.996 6.827-5.042c0 0-3.596-2.458-6.827-2.458s-6.827 2.458-6.827 2.458z" class="colorf3f3f3 svgShape"/><path fill="#cf8686" d="M20.004 12.079c.004-.206.008-.407-.005-.612l-.403-6.042a3.486 3.486 0 0 0-1.753-2.807C16.548 1.88 14.483 1 12 1s-4.548.88-5.843 1.618a3.486 3.486 0 0 0-1.753 2.807L4 11.467c-.013.205-.01.406-.005.612C5.394 11.026 8.506 9.5 12 9.5s6.606 1.526 8.004 2.579z" class="color86bacf svgShape"/><path fill="#fff" d="M18.827 17.958S15.23 15.5 12 15.5s-6.827 2.458-6.827 2.458c.028.052 3.9-2.208 6.827-2.208s6.799 2.26 6.827 2.208z" class="colorffffff svgShape" opacity=".2"/><path d="M12 22.75c-3.676 0-6.019-3.601-6.725-4.859l-.102.067C5.734 19.004 8.131 23 12 23s6.266-3.996 6.827-5.042l-.102-.067C18.02 19.15 15.675 22.75 12 22.75z" class="color010101 svgShape" opacity=".1"/><path fill="#fff" d="M4.404 5.675a3.486 3.486 0 0 1 1.753-2.807C7.452 2.13 9.517 1.25 12 1.25s4.548.88 5.843 1.618a3.486 3.486 0 0 1 1.753 2.807l.031.218-.03-.468a3.486 3.486 0 0 0-1.754-2.807C16.548 1.88 14.483 1 12 1s-4.548.88-5.843 1.618a3.486 3.486 0 0 0-1.753 2.807l-.03.438.03-.188z" class="colorffffff svgShape" opacity=".2"/><path fill="#fcc0c0" d="M20.004 12.208v-.048-.081C18.606 11.026 15.494 9.5 12 9.5s-6.606 1.526-8.004 2.579v.129C3.11 12.784 3 13.776 3 14.5c0 .963.9 3.13 2.173 3.458 0 0 3.596-2.458 6.827-2.458s6.827 2.458 6.827 2.458C20.1 17.63 21 15.463 21 14.5c0-.724-.11-1.716-.996-2.292z" class="colorfcd3c0 svgShape"/><path d="M12 9.75c3.494 0 8.004 2.458 8.004 2.458v-.048-.081C18.606 11.026 15.494 9.5 12 9.5s-6.606 1.526-8.004 2.579v.129S8.506 9.75 12 9.75z" class="color010101 svgShape" opacity=".1"/><path fill="#333" d="M8.5 14c-.551 0-1-.449-1-1s.449-1 1-1 1 .449 1 1-.449 1-1 1zM15.5 14c-.551 0-1-.449-1-1s.449-1 1-1 1 .449 1 1-.449 1-1 1z" class="color333333 svgShape"/><circle cx="12" cy="9" r="3" fill="#a12a2a" class="colorf3f3f3 svgShape"/><path d="M12 6.25c1.378 0 2.535.908 2.94 2.153C14.662 7.033 13.45 6 12 6S9.338 7.034 9.06 8.403A3.098 3.098 0 0 1 12 6.25z" class="color010101 svgShape" opacity=".1"/><circle cx="12" cy="9" r="1" fill="#edc3c3" class="colorc3dded svgShape"/><linearGradient id="a" x1="11.093" x2="12.907" y1="8.577" y2="9.423" gradientUnits="userSpaceOnUse"><stop class="stopColorffffff svgShape" offset="0" stop-color="#fff" stop-opacity=".2"/><stop class="stopColorffffff svgShape" offset="1" stop-color="#fff" stop-opacity="0"/></linearGradient><circle cx="12" cy="9" r="1" fill="url(#a)"/><path fill="#e6e5e5" d="M12 13c-2.206 0-4-1.794-4-4s1.794-4 4-4 4 1.794 4 4-1.794 4-4 4zm0-7c-1.654 0-3 1.346-3 3s1.346 3 3 3 3-1.346 3-3-1.346-3-3-3z" class="colore6e6e5 svgShape"/><linearGradient id="b" x1="8.375" x2="15.625" y1="7.31" y2="10.69" gradientUnits="userSpaceOnUse"><stop class="stopColorffffff svgShape" offset="0" stop-color="#fff" stop-opacity=".2"/><stop class="stopColorffffff svgShape" offset="1" stop-color="#fff" stop-opacity="0"/></linearGradient><circle cx="12" cy="9" r="4" fill="url(#b)"/><linearGradient id="c" x1="8.375" x2="15.625" y1="7.31" y2="10.69" gradientUnits="userSpaceOnUse"><stop class="stopColorffffff svgShape" offset="0" stop-color="#fff" stop-opacity=".2"/><stop class="stopColorffffff svgShape" offset="1" stop-color="#fff" stop-opacity="0"/></linearGradient><circle cx="12" cy="9" r="4" fill="url(#c)"/><linearGradient id="d" x1="12.426" x2="18.806" y1="9.426" y2="15.806" gradientUnits="userSpaceOnUse"><stop class="stopColor010101 svgShape" offset="0" stop-color="#010101" stop-opacity=".1"/><stop class="stopColor010101 svgShape" offset="1" stop-color="#010101" stop-opacity="0"/></linearGradient><path fill="url(#d)" d="M20.004 12.208v-.048-.081c.004-.206.008-.407-.005-.612l-.009-.134-5.162-5.161A3.988 3.988 0 0 1 16 9c0 2.206-1.794 4-4 4a3.987 3.987 0 0 1-2.827-1.173l-.001.001 3.737 3.738c2.96.376 5.918 2.392 5.918 2.392C20.1 17.63 21 15.463 21 14.5c0-.724-.11-1.716-.996-2.292z"/><linearGradient id="e" x1="3.135" x2="20.723" y1="7.581" y2="15.782" gradientUnits="userSpaceOnUse"><stop class="stopColorffffff svgShape" offset="0" stop-color="#fff" stop-opacity=".2"/><stop class="stopColorffffff svgShape" offset="1" stop-color="#fff" stop-opacity="0"/></linearGradient><path fill="url(#e)" d="M20.004 12.208v-.048-.081c.004-.206.008-.407-.005-.612l-.403-6.042a3.486 3.486 0 0 0-1.753-2.807C16.548 1.88 14.483 1 12 1s-4.548.88-5.843 1.618a3.486 3.486 0 0 0-1.753 2.807L4 11.467c-.013.205-.01.406-.005.612v.129C3.11 12.784 3 13.776 3 14.5c0 .963.9 3.13 2.173 3.458C5.734 19.004 8.131 23 12 23s6.266-3.996 6.827-5.042C20.1 17.63 21 15.463 21 14.5c0-.724-.11-1.716-.996-2.292z"/></svg>