<svg xmlns="http://www.w3.org/2000/svg" viewBox="0 0 64 64"><circle cx="32" cy="32" r="32" fill="#e9e1e1" class="colore1e6e9 svgShape"/><path fill="#fff" d="M32 12.6c-9.2 0-16.6 7.4-16.6 16.6v22.3h33.2V29.2c0-9.2-7.4-16.6-16.6-16.6z" class="colorffffff svgShape"/><path d="M48.6 52.5H15.4c-.6 0-1-.4-1-1V29.2c0-9.7 7.9-17.6 17.6-17.6 9.7 0 17.6 7.9 17.6 17.6v22.3c0 .5-.4 1-1 1zm-32.2-2h31.2V29.2c0-8.6-7-15.6-15.6-15.6s-15.6 7-15.6 15.6v21.3z" class="color183651 svgShape"/><path fill="#a12a2a" d="M19.4 47.5V29.2c0-6.9 5.7-12.6 12.6-12.6 6.9 0 12.6 5.7 12.6 12.6v18.3H19.4z" class="colorf16050 svgShape"/><path fill="#fff" d="M49.9 51.5H14.1c-2.2 0-4.1 1.8-4.1 4.1v4.6h43.9v-4.6c0-2.3-1.8-4.1-4-4.1z" class="colorffffff svgShape"/><path d="M53.9 61.2H10.1c-.6 0-1-.4-1-1v-4.6c0-2.8 2.3-5.1 5.1-5.1H50c2.8 0 5.1 2.3 5.1 5.1v4.6c-.2.5-.6 1-1.2 1zm-42.8-2H53v-3.6c0-1.7-1.4-3.1-3.1-3.1H14.1c-1.7 0-3.1 1.4-3.1 3.1v3.6z" class="color183651 svgShape"/><path fill="#fff" d="M53.2 29.4H57" class="colorffffff svgShape"/><path d="M57 30.4h-3.8c-.6 0-1-.4-1-1s.4-1 1-1H57c.6 0 1 .4 1 1 0 .5-.5 1-1 1z" class="color183651 svgShape"/><path fill="#fff" d="M7 29.4h3.8" class="colorffffff svgShape"/><path d="M10.8 30.4H7c-.6 0-1-.4-1-1s.4-1 1-1h3.8c.6 0 1 .4 1 1 0 .5-.5 1-1 1z" class="color183651 svgShape"/><path fill="#fff" d="m51.9 22.1 3.6-1.2" class="colorffffff svgShape"/><path d="M51.9 23.1c-.4 0-.8-.3-.9-.7-.2-.5.1-1.1.6-1.3l3.5-1.3c.5-.2 1.1.1 1.3.6.2.5-.1 1.1-.6 1.3L52.3 23c-.1.1-.2.1-.4.1z" class="color183651 svgShape"/><path fill="#fff" d="m48.3 15.8 2.8-2.5" class="colorffffff svgShape"/><path d="M48.3 16.8c-.3 0-.6-.1-.8-.4-.4-.4-.3-1.1.1-1.4l2.9-2.4c.4-.4 1.1-.3 1.4.1.4.4.3 1.1-.1 1.4l-2.9 2.4c-.2.2-.4.3-.6.3z" class="color183651 svgShape"/><path fill="#fff" d="m42.6 11 1.9-3.2" class="colorffffff svgShape"/><path d="M42.6 12c-.2 0-.3 0-.5-.1-.5-.3-.6-.9-.4-1.4l1.9-3.2c.3-.5.9-.6 1.4-.4.5.3.6.9.4 1.4l-1.9 3.2c-.2.3-.5.5-.9.5z" class="color183651 svgShape"/><path fill="#fff" d="m35.7 8.5.6-3.7" class="colorffffff svgShape"/><path d="M35.7 9.5h-.2c-.5-.1-.9-.6-.8-1.2l.7-3.7c.1-.5.6-.9 1.2-.8.5.1.9.6.8 1.2l-.7 3.7c-.1.5-.5.8-1 .8z" class="color183651 svgShape"/><path fill="#fff" d="m28.3 8.5-.6-3.7" class="colorffffff svgShape"/><path d="M28.3 9.5c-.5 0-.9-.3-1-.8L26.7 5c-.1-.5.3-1.1.8-1.2.5-.1 1.1.3 1.2.8l.7 3.7c.1.5-.3 1.1-.8 1.2h-.3z" class="color183651 svgShape"/><path fill="#fff" d="m21.4 11-1.9-3.2" class="colorffffff svgShape"/><path d="M21.4 12c-.3 0-.7-.2-.9-.5l-1.9-3.2c-.3-.5-.1-1.1.4-1.4.5-.3 1.1-.1 1.4.4l1.9 3.2c.3.5.1 1.1-.4 1.4-.2.1-.3.1-.5.1z" class="color183651 svgShape"/><path fill="#fff" d="m15.7 15.8-2.8-2.5" class="colorffffff svgShape"/><path d="M15.7 16.8c-.2 0-.5-.1-.6-.2l-2.9-2.4c-.4-.4-.5-1-.1-1.4.4-.4 1-.5 1.4-.1l2.9 2.4c.4.4.5 1 .1 1.4-.2.1-.5.3-.8.3z" class="color183651 svgShape"/><path fill="#fff" d="m12.1 22.1-3.6-1.2" class="colorffffff svgShape"/><path d="M12.1 23.1c-.1 0-.2 0-.3-.1l-3.5-1.3c-.5-.2-.8-.8-.6-1.3.2-.5.8-.8 1.3-.6l3.5 1.3c.5.2.8.8.6 1.3-.3.5-.6.7-1 .7z" class="color183651 svgShape"/><path fill="#fff" d="M39.3 30.1c-.5 0-.9-.4-.9-.9 0-3.5-2.9-6.4-6.4-6.4-.5 0-.9-.4-.9-.9s.4-.9.9-.9c4.6 0 8.3 3.7 8.3 8.3 0 .4-.4.8-1 .8z" class="colorffffff svgShape"/><path fill="#353535" d="M23.9 54.8h2v2h-2zm7.1 0h2v2h-2zm7.1 0h2v2h-2z" class="color193651 svgShape"/></svg>