<svg xmlns="http://www.w3.org/2000/svg" data-name="Layer 1" viewBox="0 0 32 32"><rect width="2.35" height="2.706" x="3.589" y="8.953" fill="#faa" class="colorffd9aa svgShape"/><path fill="#faa" d="M7.51,6.9A2.745,2.745,0,0,1,2.27,8.04,2.715,2.715,0,0,1,2.02,6.9,2.742,2.742,0,0,1,7.26,5.77v.01A2.626,2.626,0,0,1,7.51,6.9Z" class="colorffd9aa svgShape"/><path fill="#a12a2a" d="M7.26,5.77v.01l-3.67.73V8.08H2.3l-.03-.04A2.715,2.715,0,0,1,2.02,6.9,2.742,2.742,0,0,1,7.26,5.77Z" class="color57565d svgShape"/><path fill="#b34141" d="M4.443,20.53l1.5,1.645-.666,5.342a.482.482,0,0,0-.008.1.819.819,0,0,0,1.614.2l1.285-5.068a1.6,1.6,0,0,0-.055-.956L6.722,18.258H2.806Z" class="color416fb3 svgShape"/><path fill="#b34141" d="M1.377,28.441h0a.8.8,0,0,1-.791-.912l1.436-9.271H5.156l-3,9.552A.8.8,0,0,1,1.377,28.441Z" class="color416fb3 svgShape"/><path fill="#ec8282" d="M11.42,14.73a1.174,1.174,0,0,1-1.17,1.18H8.29L6.72,14.73v3.53H2.02V12.78a1.566,1.566,0,0,1,1.57-1.57h1.8a1.451,1.451,0,0,1,.55.1,1.818,1.818,0,0,1,.43.24l2.51,2.01h1.37A1.165,1.165,0,0,1,11.42,14.73Z" class="color82c8ec svgShape"/><path fill="#faa" d="M11.42,14.73a1.174,1.174,0,0,1-1.17,1.18H9.51L9.5,15.9V13.7l.04-.14h.71A1.165,1.165,0,0,1,11.42,14.73Z" class="colorffd9aa svgShape"/><polygon fill="#fff" points="26.5 20 26.5 24.813 18.5 24.813 18.5 26.625 11.5 26.5 11.5 28.5 .5 28.5 .5 31.5 7.5 31.5 15.5 31.5 23.5 31.5 31.5 31.5 31.5 27.844 31.5 20 26.5 20" class="colord9d8da svgShape"/><rect width="2.35" height="2.706" x="19.06" y="5.308" fill="#faa" class="colorffd9aa svgShape" transform="rotate(180 20.235 6.661)"/><path fill="#faa" d="M17.489,3.255a2.745,2.745,0,0,0,5.24,1.14,2.715,2.715,0,0,0,.25-1.14,2.742,2.742,0,0,0-5.24-1.13v.01A2.626,2.626,0,0,0,17.489,3.255Z" class="colorffd9aa svgShape"/><path fill="#a12a2a" d="M17.739,2.125v.01l3.67.73v1.57H22.7l.03-.04a2.715,2.715,0,0,0,.25-1.14,2.742,2.742,0,0,0-5.24-1.13Z" class="color57565d svgShape"/><path fill="#b34141" d="M20.556,16.885l-1.5,1.645.666,5.342a.482.482,0,0,1,.008.1.819.819,0,0,1-1.614.2l-1.285-5.068a1.6,1.6,0,0,1,.055-.956l1.386-3.541h3.917Z" class="color416fb3 svgShape"/><path fill="#b34141" d="M23.622,24.8h0a.8.8,0,0,0,.791-.912l-1.436-9.271H19.843l3,9.552A.8.8,0,0,0,23.622,24.8Z" class="color416fb3 svgShape"/><path fill="#ed4545" d="M13.579,11.085a1.174,1.174,0,0,0,1.17,1.18h1.96l1.57-1.18v3.53h4.7V9.135a1.566,1.566,0,0,0-1.57-1.57h-1.8a1.451,1.451,0,0,0-.55.1,1.818,1.818,0,0,0-.43.24l-2.51,2.01h-1.37A1.165,1.165,0,0,0,13.579,11.085Z" class="colored456a svgShape"/><path fill="#faa" d="M13.579,11.085a1.174,1.174,0,0,0,1.17,1.18h.74l.01-.01v-2.2l-.04-.14h-.71A1.165,1.165,0,0,0,13.579,11.085Z" class="colorffd9aa svgShape"/><path d="M31.5,19.5h-5a.5.5,0,0,0-.5.5v4.313H24.877a1.311,1.311,0,0,0,.031-.509L23.478,14.57V9.125a2.065,2.065,0,0,0-1.566-2V6.012a3.247,3.247,0,0,0,1.246-1.38l.009-.016a3.208,3.208,0,0,0,.312-1.366,3.233,3.233,0,0,0-6.148-1.407c-.006.008-.009.018-.015.027a3.194,3.194,0,0,0,1.246,4.142V7.349a2.046,2.046,0,0,0-.242.161l-2.372,1.9h-1.2a1.675,1.675,0,0,0,0,3.35h1.958a.5.5,0,0,0,.3-.1l.767-.575v2.43L16.424,17.97a2.115,2.115,0,0,0-.073,1.258L17.637,24.3a1.312,1.312,0,0,0,.363.6v1.218L11.509,26a.435.435,0,0,0-.359.144A.5.5,0,0,0,11,26.5V28H7.339c.006-.019.019-.035.024-.055l1.285-5.069a2.117,2.117,0,0,0-.075-1.26L7.222,18.164v-2.43l.767.575a.5.5,0,0,0,.3.1h1.958a1.675,1.675,0,1,0,0-3.35H9.053l-2.373-1.9A2.054,2.054,0,0,0,6.439,11V9.661a3.193,3.193,0,0,0,1.247-4.14c-.006-.01-.009-.02-.016-.029A3.23,3.23,0,0,0,1.835,8.266l.007.013A3.247,3.247,0,0,0,3.089,9.661v1.116a2.065,2.065,0,0,0-1.566,2v5.444L.091,27.459a1.3,1.3,0,0,0,.088.666A.492.492,0,0,0,0,28.5v3a.5.5,0,0,0,.5.5h31a.5.5,0,0,0,.5-.5V20A.5.5,0,0,0,31.5,19.5ZM15,11.759h-.247a.675.675,0,0,1-.477-1.153.667.667,0,0,1,.476-.2H15Zm-5,2.3h.247a.675.675,0,0,1,0,1.35H10ZM23.919,23.95a.3.3,0,0,1-.07.238.333.333,0,0,1-.529-.178l-2.794-8.9h2.023Zm-3.7-.145-.638-5.115.756-.831,2.012,6.406c0,.017.015.03.019.047H20.165a1.274,1.274,0,0,0,.07-.344A.785.785,0,0,0,20.223,23.806Zm.013-22.8A2.244,2.244,0,0,1,22.478,3.25a2.211,2.211,0,0,1-.115.676h-.451V2.858a.5.5,0,0,0-.4-.49l-2.953-.586A2.227,2.227,0,0,1,20.236,1.009ZM17.995,3.25a2.215,2.215,0,0,1,.075-.545l2.842.563V4.426a.5.5,0,0,0,.5.5h.3A2.23,2.23,0,0,1,17.995,3.25Zm2.917,3.169v.639h-1.3c-.017,0-.033,0-.049,0V6.419a3.158,3.158,0,0,0,1.35,0Zm-4.367,5.34H16v-1.35h.123a.5.5,0,0,0,.313-.109l2.509-2.008a1.073,1.073,0,0,1,.667-.233h1.8a1.068,1.068,0,0,1,1.066,1.066v4.983h-3.7V11.475a.481.481,0,0,0-.025-.122l1.391-1.044a.5.5,0,0,0-.6-.8Zm.777,7.225a1.1,1.1,0,0,1,.035-.652l1.263-3.223h.858l.517,1.647-1.3,1.432a.5.5,0,0,0-.126.4l.67,5.383a.323.323,0,0,1-.323.322.329.329,0,0,1-.306-.241Zm-9.68,2.994a1.1,1.1,0,0,1,.037.654L6.4,27.7a.323.323,0,0,1-.626-.118l.666-5.342a.5.5,0,0,0-.126-.4l-1.3-1.432.517-1.648h.858ZM4.842,28H2.618c0-.014.014-.026.017-.041L4.659,21.51l.756.83-.632,5.078a.964.964,0,0,0-.018.2A1.283,1.283,0,0,0,4.842,28ZM7.005,6.9A2.23,2.23,0,0,1,3.29,8.575h.3a.5.5,0,0,0,.5-.5V6.919l2.842-.563A2.215,2.215,0,0,1,7.005,6.9ZM5.439,10.069v.645c-.017,0-.033,0-.049,0h-1.3v-.64a3.158,3.158,0,0,0,1.35,0Zm-2.8-2.493A2.209,2.209,0,0,1,2.522,6.9,2.232,2.232,0,0,1,6.444,5.433l-2.953.586a.5.5,0,0,0-.4.49V7.575Zm-.115,5.2a1.068,1.068,0,0,1,1.066-1.066h1.8a1.071,1.071,0,0,1,.666.233L8.565,13.95a.5.5,0,0,0,.313.109H9v1.349H8.456l-3-2.25a.5.5,0,0,0-.6.8L6.247,15a.481.481,0,0,0-.025.123v2.633h-3.7Zm-.071,5.982H4.475L1.669,27.7c-.055.255-.446.217-.518.135a.3.3,0,0,1-.071-.233ZM31,31H1V29H11.5a.5.5,0,0,0,.5-.5V27.009l6.491.116a.56.56,0,0,0,.359-.144A.5.5,0,0,0,19,26.625V25.313h7.5a.5.5,0,0,0,.5-.5V20.5h4Z" class="color000000 svgShape"/></svg>