<svg xmlns="http://www.w3.org/2000/svg" data-name="Layer 1" viewBox="0 0 128 128"><path fill="#f4e1e1" d="M72,94A24.0275,24.0275,0,0,1,96,70c.07782,0,.15442.00519.23206.00592L96.875,29.875,66.16669,2.25H17.75L14.125,6V123.125l4.25,3.375H92.75l2.625-3,.08832-5.51361A24.02354,24.02354,0,0,1,72,94Z" class="colore1ebf4 svgShape"/><path fill="#414141" d="M88.5 64a2.0001 2.0001 0 0 0-2-2h-62a2 2 0 0 0 0 4h62A2.0001 2.0001 0 0 0 88.5 64zM24.5 112a2 2 0 0 0 0 4H86.42212a24.05527 24.05527 0 0 1-6.27106-4z" class="color2d4356 svgShape"/><path fill="#414141" d="M96,70c.67,0,1.34.04,2,.09V29.32a1.99189,1.99189,0,0,0-.64-1.46L68.03.54A1.98854,1.98854,0,0,0,66.66,0H18a6.00476,6.00476,0,0,0-6,6V122a6.00476,6.00476,0,0,0,6,6H92a6.00476,6.00476,0,0,0,6-6v-4.09c-.66.05-1.33.09-2,.09s-1.34-.04-2-.09V122a2.00591,2.00591,0,0,1-2,2H18a2.00591,2.00591,0,0,1-2-2V6a2.00587,2.00587,0,0,1,2-2H64V26a5.94174,5.94174,0,0,0,6,6H94V70.09C94.66,70.04,95.33,70,96,70ZM70,28a1.95632,1.95632,0,0,1-2-2V5.98L91.65,28Z" class="color2d4356 svgShape"/><path fill="#e38181" d="M91.65,28H70a1.95632,1.95632,0,0,1-2-2V5.98Z" class="color81d9e3 svgShape"/><path fill="#414141" d="M96,74a20,20,0,1,0,20,20A20.02009,20.02009,0,0,0,96,74Zm0,36a16,16,0,1,1,16-16A16.02124,16.02124,0,0,1,96,110Z" class="color2d4356 svgShape"/><path fill="#fc5e5e" d="M112,94A16,16,0,1,1,96,78,16.02124,16.02124,0,0,1,112,94Z" class="colorfc785e svgShape"/><path fill="#414141" d="M44.22,32.01a7.366,7.366,0,0,1-.14-4.16A8.35013,8.35013,0,0,0,45,24V20a7.79724,7.79724,0,0,0-7.76-8h-.48A7.79724,7.79724,0,0,0,29,20v4a8.28584,8.28584,0,0,0,1.06,4.08A7.53013,7.53013,0,0,1,29.78,32.01c-4.59.13-7.78,3.53-7.78,8.37v9.64A3.9947,3.9947,0,0,0,26,54H48a3.9947,3.9947,0,0,0,4-3.98V40.37C52,35.53,48.81,32.14,44.22,32.01ZM33,20a3.845,3.845,0,0,1,3.76-4h.48A3.845,3.845,0,0,1,41,20v4a3.845,3.845,0,0,1-3.76,4h-.48A3.845,3.845,0,0,1,33,24Zm7.33,13.01L37.05,37.27l-3.21-4.44a.64636.64636,0,0,1-.08-.09,11.11728,11.11728,0,0,0,.29-1.24,7.5846,7.5846,0,0,0,2.71.5h.48a7.74877,7.74877,0,0,0,2.74-.5A9.3876,9.3876,0,0,0,40.33,33.01ZM48,50l-22,.02V40.38C26,37.64,27.51,36,30.04,36h1.15l3.96,5.48a2.26032,2.26032,0,0,0,1.83,1,2.08593,2.08593,0,0,0,1.82-.95L43.08,36h.88C46.49,36,48,37.63,48,40.37L48.01,50Z" class="color2d4356 svgShape"/><path fill="#f4e1e1" d="M40.33 33.01L37.05 37.27l-3.21-4.44a.64636.64636 0 0 1-.08-.09 11.11728 11.11728 0 0 0 .29-1.24 7.5846 7.5846 0 0 0 2.71.5h.48a7.74877 7.74877 0 0 0 2.74-.5A9.3876 9.3876 0 0 0 40.33 33.01zM41 20v4a3.845 3.845 0 0 1-3.76 4h-.48A3.845 3.845 0 0 1 33 24V20a3.845 3.845 0 0 1 3.76-4h.48A3.845 3.845 0 0 1 41 20z" class="colore1ebf4 svgShape"/><path fill="#fc5e5e" d="M48.01,50H48l-22,.02V40.38C26,37.64,27.51,36,30.04,36h1.15l3.96,5.48a2.26032,2.26032,0,0,0,1.83,1,2.08593,2.08593,0,0,0,1.82-.95L43.08,36h.88C46.49,36,48,37.63,48,40.37Z" class="colorfc785e svgShape"/><path fill="#414141" d="M24.5 102a2 2 0 0 0 0 4H75.22894a23.88655 23.88655 0 0 1-1.85272-4zM24.5 92a2 2 0 0 0 0 4H72.08978C72.035 95.33978 72 94.67407 72 94s.035-1.33978.08978-2zM22.5 84a2.0001 2.0001 0 0 0 2 2H73.37622a23.88655 23.88655 0 0 1 1.85272-4H24.5A2.0001 2.0001 0 0 0 22.5 84zM86.42212 72H24.5a2 2 0 0 0 0 4H80.15106A24.05527 24.05527 0 0 1 86.42212 72zM101.584 88.08789l-7.6709 7.69141L90.2959 92.70215A2.00005 2.00005 0 1 0 87.7041 95.749l5.02441 4.27441a1.99972 1.99972 0 0 0 2.71191-.11133l8.97559-9a1.99979 1.99979 0 1 0-2.832-2.82422z" class="color2d4356 svgShape"/><path fill="#aa9f9f" d="M94,120v2a2.00591,2.00591,0,0,1-2,2H18a2.00591,2.00591,0,0,1-2-2v-2a2.00591,2.00591,0,0,0,2,2H92A2.00591,2.00591,0,0,0,94,120Z" class="color9fa5aa svgShape" opacity=".5"/><path fill="#fff" d="M64,4V6H18a2.00587,2.00587,0,0,0-2,2V6a2.00587,2.00587,0,0,1,2-2Z" class="colorffffff svgShape" opacity=".5"/><path d="M91.65,28H70a1.95632,1.95632,0,0,1-2-2V24a1.95632,1.95632,0,0,0,2,2H89.5Z" class="color0f423c svgShape" opacity=".25"/><path fill="#f9d7d7" d="M112,94c0,.34-.01.67-.03,1A16.00133,16.00133,0,0,0,80.03,95c-.02-.33-.03-.66-.03-1a16,16,0,0,1,32,0Z" class="colorf9dbd7 svgShape" opacity=".3"/><path fill="#a12a2a" d="M112,94a16,16,0,0,1-32,0c0-.34.01-.67.03-1A16.00133,16.00133,0,0,0,111.97,93C111.99,93.33,112,93.66,112,94Z" class="colora54b3f svgShape" opacity=".5"/><path fill="#fff" d="M41,20v2a3.845,3.845,0,0,0-3.76-4h-.48A3.845,3.845,0,0,0,33,22V20a3.845,3.845,0,0,1,3.76-4h.48A3.845,3.845,0,0,1,41,20Z" class="colorffffff svgShape" opacity=".5"/><path fill="#aa9f9f" d="M41,22v2a3.845,3.845,0,0,1-3.76,4h-.48A3.845,3.845,0,0,1,33,24V22a3.845,3.845,0,0,0,3.76,4h.48A3.845,3.845,0,0,0,41,22Z" class="color9fa5aa svgShape" opacity=".5"/><path fill="#f9d7d7" d="M48,40.37v2C48,39.63,46.49,38,43.96,38h-.88L38.8,43.53a2.08593,2.08593,0,0,1-1.82.95,2.26032,2.26032,0,0,1-1.83-1L31.19,38H30.04C27.51,38,26,39.64,26,42.38v-2C26,37.64,27.51,36,30.04,36h1.15l3.96,5.48a2.26032,2.26032,0,0,0,1.83,1,2.08593,2.08593,0,0,0,1.82-.95L43.08,36h.88C46.49,36,48,37.63,48,40.37Z" class="colorf9dbd7 svgShape" opacity=".3"/><polygon fill="#a12a2a" points="48.01 48 48.01 50 48 50 26 50.02 26 48.02 48 48 48.01 48" class="colora54b3f svgShape" opacity=".5"/></svg>